<svg id="visual" viewBox="0 0 900 600" width="900" height="600" xmlns="http://www.w3.org/2000/svg" version="1.1"><g transform="translate(444.6319025743112 294.6455291957757)"><path d="M76.4 -135.3C111.7 -111.8 162 -117.2 188.7 -99.4C215.5 -81.7 218.7 -40.8 204 -8.5C189.3 23.8 156.6 47.7 144.6 91C132.6 134.3 141.3 197 120.6 221.6C100 246.2 50 232.6 5.9 222.4C-38.2 212.1 -76.3 205.2 -105.1 185.3C-133.8 165.4 -153.1 132.4 -152.7 99.4C-152.4 66.3 -132.5 33.2 -145.3 -7.4C-158.1 -48 -203.8 -96 -201.9 -125.2C-199.9 -154.3 -150.5 -164.6 -108.9 -184.5C-67.3 -204.3 -33.7 -233.6 -6.6 -222.2C20.5 -210.8 41 -158.7 76.4 -135.3" fill="#69c2ff"></path></g></svg>
