<svg id="visual" viewBox="0 0 900 600" width="900" height="600" xmlns="http://www.w3.org/2000/svg" version="1.1"><g transform="translate(451.86216965252197 284.98656931473835)"><path d="M106 -180.4C134 -167.4 151 -132.2 150.3 -98.4C149.5 -64.7 131 -32.3 146.3 8.8C161.6 50 210.7 100 215.5 140.8C220.4 181.7 180.9 213.4 137.6 216.7C94.3 220.1 47.2 195 2 191.6C-43.2 188.1 -86.3 206.2 -107.6 190.1C-128.8 174 -128 123.8 -137.3 86.4C-146.5 49 -165.8 24.5 -186.6 -12C-207.3 -48.5 -229.7 -97 -214.8 -124.6C-199.8 -152.1 -147.7 -158.8 -105.7 -163.7C-63.7 -168.6 -31.8 -171.8 3.6 -178C39 -184.2 78 -193.4 106 -180.4" fill="#69c2ff"></path></g></svg>
