<svg id="visual" viewBox="0 0 900 600" width="900" height="600" xmlns="http://www.w3.org/2000/svg" version="1.1"><g transform="translate(448.89088389055667 332.3769737539995)"><path d="M132.9 -224.5C165.8 -211.2 181.6 -162.6 192.6 -119.3C203.6 -76 209.8 -38 209.4 -0.3C209 37.5 201.9 75 182.6 103.9C163.2 132.7 131.6 153 99.1 160.4C66.7 167.8 33.3 162.4 4.1 155.3C-25.2 148.3 -50.3 139.5 -92.8 137.8C-135.2 136.2 -194.9 141.6 -201.1 119.8C-207.2 98 -159.9 49 -159.9 0C-159.9 -49 -207.2 -98 -207.2 -130.3C-207.1 -162.7 -159.5 -178.3 -117.1 -186.2C-74.7 -194 -37.3 -194 6.3 -205C50 -215.9 100 -237.9 132.9 -224.5" fill="#69c2ff"></path></g></svg>
