<svg id="visual" viewBox="0 0 900 600" width="900" height="600" xmlns="http://www.w3.org/2000/svg" version="1.1"><g transform="translate(434.1744204503546 244.91551950435036)"><path d="M90.8 -148.2C116.7 -142.4 135.8 -116 164.4 -87.8C193 -59.7 231 -29.8 237.2 3.6C243.4 37 217.8 74 194.3 111C170.8 147.9 149.4 184.8 117.4 215C85.3 245.1 42.7 268.6 7.1 256.3C-28.5 244 -57 196.1 -100.3 172.4C-143.6 148.7 -201.7 149.4 -206.2 124.7C-210.7 100 -161.6 50 -139.2 12.9C-116.9 -24.2 -121.2 -48.3 -113.9 -68.1C-106.5 -87.9 -87.5 -103.3 -66.6 -111.8C-45.7 -120.4 -22.8 -122.2 4.8 -130.6C32.5 -139 65 -153.9 90.8 -148.2" fill="#69c2ff"></path></g></svg>
