<svg id="visual" viewBox="0 0 960 540" width="960" height="540" xmlns="http://www.w3.org/2000/svg" version="1.1">
  <rect x="0" y="0" width="960" height="540" fill="#001220"></rect>
  <path
    d="M0 272L13.3 270.3C26.7 268.7 53.3 265.3 80 276.2C106.7 287 133.3 312 160 312.8C186.7 313.7 213.3 290.3 240 286.3C266.7 282.3 293.3 297.7 320 302.3C346.7 307 373.3 301 400 304.2C426.7 307.3 453.3 319.7 480 313.7C506.7 307.7 533.3 283.3 560 271.5C586.7 259.7 613.3 260.3 640 273C666.7 285.7 693.3 310.3 720 312C746.7 313.7 773.3 292.3 800 283.8C826.7 275.3 853.3 279.7 880 288.5C906.7 297.3 933.3 310.7 946.7 317.3L960 324L960 541L946.7 541C933.3 541 906.7 541 880 541C853.3 541 826.7 541 800 541C773.3 541 746.7 541 720 541C693.3 541 666.7 541 640 541C613.3 541 586.7 541 560 541C533.3 541 506.7 541 480 541C453.3 541 426.7 541 400 541C373.3 541 346.7 541 320 541C293.3 541 266.7 541 240 541C213.3 541 186.7 541 160 541C133.3 541 106.7 541 80 541C53.3 541 26.7 541 13.3 541L0 541Z"
    fill="#001122"></path>
  <path
    d="M0 319L13.3 326.2C26.7 333.3 53.3 347.7 80 345.5C106.7 343.3 133.3 324.7 160 319.7C186.7 314.7 213.3 323.3 240 334.8C266.7 346.3 293.3 360.7 320 365.3C346.7 370 373.3 365 400 359.5C426.7 354 453.3 348 480 344.3C506.7 340.7 533.3 339.3 560 343.3C586.7 347.3 613.3 356.7 640 349.2C666.7 341.7 693.3 317.3 720 318.7C746.7 320 773.3 347 800 347C826.7 347 853.3 320 880 308.2C906.7 296.3 933.3 299.7 946.7 301.3L960 303L960 541L946.7 541C933.3 541 906.7 541 880 541C853.3 541 826.7 541 800 541C773.3 541 746.7 541 720 541C693.3 541 666.7 541 640 541C613.3 541 586.7 541 560 541C533.3 541 506.7 541 480 541C453.3 541 426.7 541 400 541C373.3 541 346.7 541 320 541C293.3 541 266.7 541 240 541C213.3 541 186.7 541 160 541C133.3 541 106.7 541 80 541C53.3 541 26.7 541 13.3 541L0 541Z"
    fill="#0a2c48"></path>
  <path
    d="M0 365L13.3 367.5C26.7 370 53.3 375 80 371.3C106.7 367.7 133.3 355.3 160 357.3C186.7 359.3 213.3 375.7 240 382.5C266.7 389.3 293.3 386.7 320 380.3C346.7 374 373.3 364 400 362.7C426.7 361.3 453.3 368.7 480 377.7C506.7 386.7 533.3 397.3 560 396.8C586.7 396.3 613.3 384.7 640 380.3C666.7 376 693.3 379 720 385.8C746.7 392.7 773.3 403.3 800 397C826.7 390.7 853.3 367.3 880 362.3C906.7 357.3 933.3 370.7 946.7 377.3L960 384L960 541L946.7 541C933.3 541 906.7 541 880 541C853.3 541 826.7 541 800 541C773.3 541 746.7 541 720 541C693.3 541 666.7 541 640 541C613.3 541 586.7 541 560 541C533.3 541 506.7 541 480 541C453.3 541 426.7 541 400 541C373.3 541 346.7 541 320 541C293.3 541 266.7 541 240 541C213.3 541 186.7 541 160 541C133.3 541 106.7 541 80 541C53.3 541 26.7 541 13.3 541L0 541Z"
    fill="#124a72"></path>
  <path
    d="M0 405L13.3 410C26.7 415 53.3 425 80 423.5C106.7 422 133.3 409 160 411.2C186.7 413.3 213.3 430.7 240 435.2C266.7 439.7 293.3 431.3 320 423.5C346.7 415.7 373.3 408.3 400 412.7C426.7 417 453.3 433 480 439.2C506.7 445.3 533.3 441.7 560 440.3C586.7 439 613.3 440 640 430.2C666.7 420.3 693.3 399.7 720 389.3C746.7 379 773.3 379 800 384.8C826.7 390.7 853.3 402.3 880 409.5C906.7 416.7 933.3 419.3 946.7 420.7L960 422L960 541L946.7 541C933.3 541 906.7 541 880 541C853.3 541 826.7 541 800 541C773.3 541 746.7 541 720 541C693.3 541 666.7 541 640 541C613.3 541 586.7 541 560 541C533.3 541 506.7 541 480 541C453.3 541 426.7 541 400 541C373.3 541 346.7 541 320 541C293.3 541 266.7 541 240 541C213.3 541 186.7 541 160 541C133.3 541 106.7 541 80 541C53.3 541 26.7 541 13.3 541L0 541Z"
    fill="#17699f"></path>
  <path
    d="M0 472L13.3 471.2C26.7 470.3 53.3 468.7 80 460.3C106.7 452 133.3 437 160 436.8C186.7 436.7 213.3 451.3 240 456.7C266.7 462 293.3 458 320 457.7C346.7 457.3 373.3 460.7 400 456.2C426.7 451.7 453.3 439.3 480 439C506.7 438.7 533.3 450.3 560 456.8C586.7 463.3 613.3 464.7 640 464C666.7 463.3 693.3 460.7 720 460.8C746.7 461 773.3 464 800 466.3C826.7 468.7 853.3 470.3 880 469.8C906.7 469.3 933.3 466.7 946.7 465.3L960 464L960 541L946.7 541C933.3 541 906.7 541 880 541C853.3 541 826.7 541 800 541C773.3 541 746.7 541 720 541C693.3 541 666.7 541 640 541C613.3 541 586.7 541 560 541C533.3 541 506.7 541 480 541C453.3 541 426.7 541 400 541C373.3 541 346.7 541 320 541C293.3 541 266.7 541 240 541C213.3 541 186.7 541 160 541C133.3 541 106.7 541 80 541C53.3 541 26.7 541 13.3 541L0 541Z"
    fill="#158bce"></path>
  <path
    d="M0 505L13.3 499C26.7 493 53.3 481 80 480.3C106.7 479.7 133.3 490.3 160 490.7C186.7 491 213.3 481 240 475.5C266.7 470 293.3 469 320 470.2C346.7 471.3 373.3 474.7 400 476.5C426.7 478.3 453.3 478.7 480 481.3C506.7 484 533.3 489 560 490.3C586.7 491.7 613.3 489.3 640 492C666.7 494.7 693.3 502.3 720 502.7C746.7 503 773.3 496 800 494.3C826.7 492.7 853.3 496.3 880 497.3C906.7 498.3 933.3 496.7 946.7 495.8L960 495L960 541L946.7 541C933.3 541 906.7 541 880 541C853.3 541 826.7 541 800 541C773.3 541 746.7 541 720 541C693.3 541 666.7 541 640 541C613.3 541 586.7 541 560 541C533.3 541 506.7 541 480 541C453.3 541 426.7 541 400 541C373.3 541 346.7 541 320 541C293.3 541 266.7 541 240 541C213.3 541 186.7 541 160 541C133.3 541 106.7 541 80 541C53.3 541 26.7 541 13.3 541L0 541Z"
    fill="#00afff"></path>
</svg>
